<svg width="20" height="20" viewBox="0 0 20 20" fill="none" xmlns="http://www.w3.org/2000/svg">
<g id="Icon Base">
<path id="overlay color" fill-rule="evenodd" clip-rule="evenodd" d="M15.6002 11.1667L17.1002 12.675C17.4854 13.0666 17.5987 13.6508 17.3878 14.1581C17.1769 14.6653 16.6828 14.9969 16.1335 15H13.3335V15.2834C13.2525 17.0448 11.7618 18.4087 10.0002 18.3334C8.23853 18.4087 6.74789 17.0448 6.66685 15.2834V15H3.86685C3.31754 14.9969 2.82346 14.6653 2.61258 14.1581C2.40169 13.6508 2.51498 13.0666 2.90018 12.675L4.40018 11.1667V7.27503C4.40313 5.65933 5.10171 4.12316 6.31745 3.05899C7.53319 1.99483 9.14831 1.50574 10.7502 1.71669C13.5714 2.1491 15.6414 4.59615 15.6002 7.45003V11.1667ZM10.0002 16.6667C10.8364 16.7257 11.5708 16.1161 11.6668 15.2834V15H8.33351V15.2834C8.42952 16.1161 9.16401 16.7257 10.0002 16.6667Z" fill="#637381"/>
</g>
</svg>
