<svg width="25" height="24" viewBox="0 0 25 24" fill="none" xmlns="http://www.w3.org/2000/svg">
<g id="Facebook svg" clip-path="url(#clip0_530_6641)">
<g id="g10">
<g id="g12">
<path id="path14" d="M24.5 12C24.5 5.37258 19.1274 0 12.5 0C5.87258 0 0.5 5.37258 0.5 12C0.5 17.9895 4.88823 22.954 10.625 23.8542V15.4688H7.57813V12H10.625V9.35625C10.625 6.34875 12.4165 4.6875 15.1576 4.6875C16.4705 4.6875 17.8438 4.92188 17.8438 4.92188V7.875H16.3306C14.8399 7.875 14.375 8.80001 14.375 9.74899V12H17.7031L17.1711 15.4688H14.375V23.8542C20.1118 22.954 24.5 17.9895 24.5 12Z" fill="black"/>
<path id="path16" d="M17.1711 15.4688L17.7031 12H14.375V9.749C14.375 8.80002 14.8399 7.87501 16.3306 7.87501H17.8438V4.92189C17.8438 4.92189 16.4705 4.68751 15.1576 4.68751C12.4165 4.68751 10.625 6.34876 10.625 9.35626V12H7.57812V15.4688H10.625V23.8542C11.2359 23.9501 11.8621 24 12.5 24C13.1379 24 13.7641 23.9501 14.375 23.8542V15.4688H17.1711Z" fill="white"/>
</g>
</g>
</g>
<defs>
<clipPath id="clip0_530_6641">
<rect width="24" height="24" fill="white" transform="translate(0.5)"/>
</clipPath>
</defs>
</svg>
